<svg width="525" height="514" viewBox="0 0 525 514" fill="none" xmlns="http://www.w3.org/2000/svg">
<path d="M91.1458 167.708L175 191.917L267.167 124.979L134.896 128.771C133.598 128.828 132.34 129.231 131.25 129.938L89.3958 154C88.0939 154.721 87.0383 155.817 86.3657 157.144C85.693 158.472 85.4342 159.971 85.6226 161.448C85.8111 162.924 86.4382 164.31 87.4229 165.426C88.4075 166.542 89.7044 167.337 91.1458 167.708Z" fill="#898AC4"/>
<path d="M503.417 92.75L411.542 72.9167C403.815 71.2392 395.818 71.2436 388.093 72.9295C380.368 74.6154 373.096 77.9433 366.771 82.6875L89.25 284.375L22.6042 281.458C18.7868 281.329 15.025 282.401 11.8501 284.525C8.67523 286.648 6.24758 289.715 4.90996 293.293C3.57234 296.871 3.39233 300.778 4.39536 304.464C5.39839 308.15 7.53378 311.427 10.5 313.833L75.3958 365.312C76.4642 366.174 77.7359 366.748 79.0891 366.977C80.4424 367.207 81.832 367.086 83.125 366.625C101.646 359.479 170.625 322.875 252.146 278.104L268.479 445.958C268.618 447.412 269.151 448.8 270.02 449.974C270.89 451.147 272.063 452.06 273.414 452.615C274.765 453.171 276.241 453.347 277.685 453.124C279.128 452.902 280.483 452.29 281.604 451.354L318.063 421.021C320.058 419.347 321.401 417.023 321.854 414.458L356.417 220.646C414.75 188.271 470.458 156.917 509.688 134.75C513.759 132.535 517.05 129.122 519.117 124.973C521.183 120.824 521.924 116.141 521.24 111.557C520.556 106.973 518.479 102.71 515.29 99.3463C512.102 95.9822 507.957 93.6795 503.417 92.75Z" fill="#898AC4"/>
</svg>
